HIERARCHY
ROOT Hips
{
	OFFSET 0.000000 0.000000 0.000000
	CHANNELS 6 Xposition Yposition Zposition Xrotation Yrotation Zrotation
	JOINT Spine
	{
		OFFSET 0.000000 0.042231 0.063346
		CHANNELS 3 Xrotation Yrotation Zrotation
		JOINT Spine1
		{
			OFFSET 0.000000 0.014667 0.083179
			CHANNELS 3 Xrotation Yrotation Zrotation
			JOINT Spine2
			{
				OFFSET 0.000000 0.007361 0.084141
				CHANNELS 3 Xrotation Yrotation Zrotation
				JOINT Spine3
				{
					OFFSET 0.000000 0.000000 0.084462
					CHANNELS 3 Xrotation Yrotation Zrotation
					JOINT Neck
					{
						OFFSET 0.000000 -0.031673 0.221713
						CHANNELS 3 Xrotation Yrotation Zrotation
						JOINT Head
						{
							OFFSET 0.000000 -0.020167 0.114371
							CHANNELS 3 Xrotation Yrotation Zrotation
							End Site
							{
								OFFSET 0.000000 0.000000 0.000000
							}
						}
					}
					JOINT RightShoulder
					{
						OFFSET -0.029161 -0.048602 0.157471
						CHANNELS 3 Xrotation Yrotation Zrotation
						JOINT RightArm
						{
							OFFSET -0.144834 0.000000 0.000000
							CHANNELS 3 Xrotation Yrotation Zrotation
							JOINT RightForeArm
							{
								OFFSET -0.274949 0.000000 0.000000
								CHANNELS 3 Xrotation Yrotation Zrotation
								JOINT RightHand
								{
									OFFSET -0.254725 0.000000 0.000000
									CHANNELS 3 Xrotation Yrotation Zrotation
									JOINT RightHandEnd
									{
										OFFSET -0.068160 0.000000 0.000000
										CHANNELS 3 Xrotation Yrotation Zrotation
										End Site
										{
											OFFSET 0.000000 0.000000 0.000000
										}
									}
									JOINT RightHandThumb1
									{
										OFFSET -0.027264 -0.045440 -0.018176
										CHANNELS 3 Xrotation Yrotation Zrotation
										End Site
										{
											OFFSET 0.000000 0.000000 0.000000
										}
									}
								}
							}
						}
					}
					JOINT LeftShoulder
					{
						OFFSET 0.029161 -0.048602 0.157471
						CHANNELS 3 Xrotation Yrotation Zrotation
						JOINT LeftArm
						{
							OFFSET 0.144834 0.000000 0.000000
							CHANNELS 3 Xrotation Yrotation Zrotation
							JOINT LeftForeArm
							{
								OFFSET 0.274949 0.000000 0.000000
								CHANNELS 3 Xrotation Yrotation Zrotation
								JOINT LeftHand
								{
									OFFSET 0.254725 0.000000 0.000000
									CHANNELS 3 Xrotation Yrotation Zrotation
									JOINT LeftHandEnd
									{
										OFFSET 0.068160 0.000000 0.000000
										CHANNELS 3 Xrotation Yrotation Zrotation
										End Site
										{
											OFFSET 0.000000 0.000000 0.000000
										}
									}
									JOINT LeftHandThumb1
									{
										OFFSET 0.027264 -0.045440 -0.018176
										CHANNELS 3 Xrotation Yrotation Zrotation
										End Site
										{
											OFFSET 0.000000 0.000000 0.000000
										}
									}
								}
							}
						}
					}
				}
			}
		}
	}
	JOINT RightUpLeg
	{
		OFFSET -0.086512 0.000000 -0.025273
		CHANNELS 3 Xrotation Yrotation Zrotation
		JOINT RightLeg
		{
			OFFSET 0.000000 0.000000 -0.433119
			CHANNELS 3 Xrotation Yrotation Zrotation
			JOINT RightFoot
			{
				OFFSET 0.000000 0.000000 -0.404688
				CHANNELS 3 Xrotation Yrotation Zrotation
				JOINT RightToeBase
				{
					OFFSET 0.000000 -0.126496 -0.046041
					CHANNELS 3 Xrotation Yrotation Zrotation
					End Site
					{
						OFFSET 0.000000 0.000000 0.000000
					}
				}
			}
		}
	}
	JOINT LeftUpLeg
	{
		OFFSET 0.086512 0.000000 -0.025273
		CHANNELS 3 Xrotation Yrotation Zrotation
		JOINT LeftLeg
		{
			OFFSET 0.000000 0.000000 -0.433119
			CHANNELS 3 Xrotation Yrotation Zrotation
			JOINT LeftFoot
			{
				OFFSET 0.000000 0.000000 -0.404688
				CHANNELS 3 Xrotation Yrotation Zrotation
				JOINT LeftToeBase
				{
					OFFSET 0.000000 -0.126496 -0.046041
					CHANNELS 3 Xrotation Yrotation Zrotation
					End Site
					{
						OFFSET 0.000000 0.000000 0.000000
					}
				}
			}
		}
	}
}
MOTION
Frames: 9
Frame Time: 0.033333
0.281567 -3.351769 0.891687 -1.384900 -0.152300 -176.323300 -3.187100 -0.924700 0.271500 -1.793500 -1.015700 0.065500 0.367400 0.401900 2.055200 -0.175500 -0.057600 0.039800 4.269700 -3.328600 0.224800 -0.811000 0.440300 0.058800 -5.747500 16.804400 0.359600 -17.622100 -14.852100 -7.124400 0.000000 0.000000 15.118800 -12.606100 23.149300 1.574900 0.000000 0.000000 0.000000 0.000000 0.000000 0.000000 -3.068200 -10.684600 2.028600 -1.077700 12.555200 -11.158600 0.000000 0.000000 -12.829300 -5.491300 -16.638000 4.625800 0.000000 0.000000 0.000000 0.000000 0.000000 0.000000 -1.940700 -2.470200 -43.871400 1.211700 0.000000 0.000000 -8.573700 -0.922700 0.235100 4.735600 0.000000 0.000000 0.681600 0.532800 27.945700 -2.619200 0.000000 0.000000 -4.887400 12.401800 13.142800 0.651200 0.000000 0.000000 
0.281381 -3.351944 0.891690 -1.363800 -0.154600 -176.322400 -3.173100 -0.928900 0.261100 -1.787300 -1.019800 0.064700 0.393000 0.391100 2.051300 -0.174800 -0.058700 0.043600 4.278500 -3.293100 0.205200 -0.814700 0.437400 0.031700 -5.769400 16.803500 0.418700 -17.540700 -14.802400 -7.069000 0.000000 0.000000 15.138000 -12.695200 23.375800 1.750300 0.000000 0.000000 0.000000 0.000000 0.000000 0.000000 -3.081500 -10.691100 2.048400 -0.867200 12.516900 -11.226600 0.000000 0.000000 -12.680800 -5.522600 -16.686100 4.519800 0.000000 0.000000 0.000000 0.000000 0.000000 0.000000 -1.968100 -2.436900 -43.431600 1.299700 0.000000 0.000000 -8.630500 -0.841600 -0.183800 4.836000 0.000000 0.000000 0.711600 0.550300 27.902300 -2.664400 0.000000 0.000000 -4.874000 12.418900 13.187100 0.647700 0.000000 0.000000 
0.281140 -3.352284 0.891718 -1.343800 -0.168200 -176.340600 -3.155800 -0.946900 0.249400 -1.777600 -1.024400 0.065500 0.444200 0.379900 2.053200 -0.173900 -0.059100 0.054400 4.246100 -3.235400 0.164300 -0.819000 0.446700 -0.021500 -5.773000 16.786600 0.517500 -17.407800 -14.704100 -7.027900 0.000000 0.000000 15.234100 -12.893200 23.786200 2.145700 0.000000 0.000000 0.000000 0.000000 0.000000 0.000000 -3.106200 -10.680700 2.093600 -1.014900 12.544300 -11.153800 0.000000 0.000000 -12.653000 -5.803500 -16.873500 4.499300 0.000000 0.000000 0.000000 0.000000 0.000000 0.000000 -2.003800 -2.419100 -43.159500 1.359500 0.000000 0.000000 -8.680500 -0.823100 -0.377900 5.066200 0.000000 0.000000 0.723200 0.557700 27.878800 -2.693800 0.000000 0.000000 -4.861400 12.406900 13.223600 0.652600 0.000000 0.000000 
0.280949 -3.352709 0.891746 -1.341200 -0.181100 -176.373300 -3.141600 -0.961500 0.246200 -1.771300 -1.020700 0.066500 0.508600 0.361600 2.060800 -0.175000 -0.057700 0.067300 4.181200 -3.170200 0.117500 -0.850000 0.441700 -0.061100 -5.736700 16.766200 0.560300 -17.332200 -14.610600 -6.958900 0.000000 0.000000 15.336700 -13.144600 24.274100 2.724200 0.000000 0.000000 0.000000 0.000000 0.000000 0.000000 -3.132900 -10.667400 2.159500 -1.457500 12.633300 -10.970100 0.000000 0.000000 -12.796300 -6.437300 -17.166000 4.449900 0.000000 0.000000 0.000000 0.000000 0.000000 0.000000 -2.040900 -2.416100 -43.134600 1.367900 0.000000 0.000000 -8.688400 -0.859600 -0.310500 5.255700 0.000000 0.000000 0.695900 0.557400 27.882300 -2.685600 0.000000 0.000000 -4.856100 12.359000 13.242500 0.659800 0.000000 0.000000 
0.280797 -3.353130 0.891748 -1.366400 -0.179500 -176.404100 -3.145100 -0.953900 0.248500 -1.770900 -1.013500 0.067200 0.577500 0.332400 2.064700 -0.180600 -0.053800 0.082900 4.126000 -3.102300 0.076200 -0.926200 0.400500 -0.046200 -5.727400 16.763700 0.489800 -17.355000 -14.571000 -6.791500 0.000000 0.000000 15.361800 -13.379000 24.743600 3.345200 0.000000 0.000000 0.000000 0.000000 0.000000 0.000000 -3.146000 -10.671600 2.239600 -1.766100 12.710300 -10.848300 0.000000 0.000000 -12.962900 -7.227100 -17.588300 4.229200 0.000000 0.000000 0.000000 0.000000 0.000000 0.000000 -2.092900 -2.400500 -43.180600 1.367600 0.000000 0.000000 -8.667900 -0.884300 -0.219500 5.295100 0.000000 0.000000 0.635300 0.567400 27.867200 -2.663900 0.000000 0.000000 -4.857600 12.312300 13.281500 0.661200 0.000000 0.000000 
0.280660 -3.353448 0.891753 -1.372500 -0.177100 -176.416300 -3.135100 -0.941200 0.249700 -1.768500 -1.013100 0.068000 0.643900 0.306200 2.050300 -0.188700 -0.049100 0.096900 4.105700 -3.036300 0.046300 -1.020700 0.351500 0.021400 -5.823600 16.782900 0.391700 -17.405200 -14.570500 -6.591500 0.000000 0.000000 15.346500 -13.618700 25.122300 3.894800 0.000000 0.000000 0.000000 0.000000 0.000000 0.000000 -3.153700 -10.693700 2.325900 -1.787600 12.739100 -10.854600 0.000000 0.000000 -13.010400 -7.934600 -18.130200 3.869200 0.000000 0.000000 0.000000 0.000000 0.000000 0.000000 -2.111600 -2.387800 -43.195100 1.363500 0.000000 0.000000 -8.638600 -0.907200 -0.223800 5.276100 0.000000 0.000000 0.615600 0.581400 27.814300 -2.675100 0.000000 0.000000 -4.852900 12.302600 13.345800 0.647300 0.000000 0.000000 
0.280551 -3.353730 0.891769 -1.391800 -0.182400 -176.404000 -3.136600 -0.936800 0.249200 -1.773300 -1.004500 0.069800 0.707600 0.280500 2.011100 -0.194900 -0.044900 0.107900 4.100500 -2.971900 0.029200 -1.071400 0.332600 0.114100 -5.971200 16.802100 0.348200 -17.434900 -14.551400 -6.473300 0.000000 0.000000 15.381700 -13.908700 25.348800 4.360300 0.000000 0.000000 0.000000 0.000000 0.000000 0.000000 -3.180500 -10.709800 2.402000 -1.797100 12.759800 -10.878900 0.000000 0.000000 -12.975300 -8.517400 -18.647400 3.536600 0.000000 0.000000 0.000000 0.000000 0.000000 0.000000 -2.142700 -2.383900 -43.228500 1.360600 0.000000 0.000000 -8.606100 -0.959800 -0.256200 5.255400 0.000000 0.000000 0.590500 0.589900 27.755800 -2.703800 0.000000 0.000000 -4.835300 12.311800 13.393100 0.619000 0.000000 0.000000 
0.280507 -3.353930 0.891769 -1.413900 -0.191100 -176.377900 -3.140000 -0.931600 0.246900 -1.772400 -0.997500 0.064600 0.753000 0.263800 1.972600 -0.197900 -0.046100 0.114600 4.094300 -2.895300 0.029900 -1.084700 0.341200 0.212000 -6.072200 16.850800 0.355100 -17.440100 -14.531800 -6.477200 0.000000 0.000000 15.479700 -14.213200 25.439600 4.784500 0.000000 0.000000 0.000000 0.000000 0.000000 0.000000 -3.213600 -10.730900 2.476000 -1.947100 12.818600 -10.858400 0.000000 0.000000 -12.965900 -8.997500 -18.978900 3.351800 0.000000 0.000000 0.000000 0.000000 0.000000 0.000000 -2.169800 -2.387400 -43.287800 1.356400 0.000000 0.000000 -8.557800 -1.023800 -0.288700 5.137100 0.000000 0.000000 0.564500 0.592300 27.736900 -2.732300 0.000000 0.000000 -4.809000 12.317800 13.385900 0.591600 0.000000 0.000000 
0.280507 -3.354037 0.891743 -1.442000 -0.194100 -176.357200 -3.144600 -0.920800 0.239700 -1.775500 -0.983600 0.067500 0.794100 0.245300 1.928600 -0.201800 -0.055600 0.126700 4.077800 -2.788300 0.046800 -1.108000 0.358000 0.306300 -6.139000 16.959700 0.358800 -17.407800 -14.558200 -6.529500 0.000000 0.000000 15.591900 -14.425200 25.500100 5.142300 0.000000 0.000000 0.000000 0.000000 0.000000 0.000000 -3.212800 -10.775700 2.589500 -2.089800 12.896100 -10.851600 0.000000 0.000000 -13.017700 -9.266900 -19.118900 3.310100 0.000000 0.000000 0.000000 0.000000 0.000000 0.000000 -2.199600 -2.383400 -43.306900 1.365600 0.000000 0.000000 -8.515200 -1.050600 -0.352200 4.938100 0.000000 0.000000 0.536800 0.597200 27.742900 -2.758300 0.000000 0.000000 -4.783600 12.334400 13.358300 0.575000 0.000000 0.000000 
